<svg xmlns="http://www.w3.org/2000/svg" viewBox="0 0 176.32 148.26"><defs><style>.a{fill:#42bfec;}.b{fill:#ade0f3;}</style></defs><title>fogAsset 16</title><path class="a" d="M125.17,37h0c0-.25,0-.5,0-.76a36.25,36.25,0,0,0-72.5,0v.07a29.6,29.6,0,0,0,1.39,59.16h71.11a29.24,29.24,0,1,0,0-58.47Z"/><path class="b" d="M134,113.42H44.66a3.77,3.77,0,1,1,0-7.54H134a3.77,3.77,0,0,1,0,7.54Z"/><path class="b" d="M172.55,113.42h-19a3.77,3.77,0,0,1,0-7.54h19a3.77,3.77,0,0,1,0,7.54Z"/><path class="b" d="M168.82,148.26H29.09a3.77,3.77,0,0,1,0-7.53H168.82a3.77,3.77,0,1,1,0,7.53Z"/><path class="b" d="M108.61,130.84H3.77a3.77,3.77,0,1,1,0-7.53H108.61a3.77,3.77,0,0,1,0,7.53Z"/><path class="b" d="M160.72,130.84H130a3.77,3.77,0,1,1,0-7.53h30.68a3.77,3.77,0,0,1,0,7.53Z"/></svg>