<svg xmlns="http://www.w3.org/2000/svg" viewBox="0 0 129.97 137.42"><defs><style>.a{fill:#42bfec;}.b{fill:#ade0f3;}.c{fill:#faaf40;}</style></defs><title>hail-stormAsset 14</title><path class="a" d="M100.73,37h0c0-.25,0-.5,0-.76a36.26,36.26,0,0,0-72.51,0s0,0,0,.07a29.6,29.6,0,0,0,1.38,59.16h71.12a29.24,29.24,0,1,0,0-58.47Z"/><circle class="b" cx="30.48" cy="76.62" r="6.11"/><circle class="b" cx="30.48" cy="95.48" r="6.11"/><circle class="b" cx="30.48" cy="113.4" r="6.11"/><circle class="b" cx="30.48" cy="131.31" r="6.11"/><circle class="b" cx="53.48" cy="76.62" r="6.11"/><circle class="b" cx="53.48" cy="95.48" r="6.11"/><circle class="b" cx="53.48" cy="113.4" r="6.11"/><circle class="b" cx="53.48" cy="131.31" r="6.11"/><circle class="b" cx="76.49" cy="76.62" r="6.11"/><circle class="b" cx="76.49" cy="95.48" r="6.11"/><circle class="b" cx="76.49" cy="113.4" r="6.11"/><circle class="b" cx="76.49" cy="131.31" r="6.11"/><circle class="b" cx="99.49" cy="76.62" r="6.11"/><circle class="b" cx="99.49" cy="95.48" r="6.11"/><circle class="b" cx="99.49" cy="113.4" r="6.11"/><circle class="b" cx="99.49" cy="131.31" r="6.11"/><polygon class="c" points="95.62 76.63 59.59 76.63 77.86 44.15 59.59 44.15 33.71 90.77 61.62 90.77 50.45 132.95 95.62 76.63"/></svg>