<svg xmlns="http://www.w3.org/2000/svg" viewBox="0 0 129.97 129.8"><defs><style>.a{fill:#42bfec;}.b{fill:#ade0f3;}</style></defs><title>rainsnowAsset 16</title><path class="a" d="M100.73,37h0c0-.25,0-.5,0-.76a36.26,36.26,0,0,0-72.51,0s0,0,0,.07a29.6,29.6,0,0,0,1.38,59.16h71.12a29.24,29.24,0,1,0,0-58.47Z"/><path class="b" d="M44.54,81.8,33.09,106.12A18.72,18.72,0,0,0,33.28,123a12.12,12.12,0,0,0,11.26,6.83A12.15,12.15,0,0,0,55.8,123,18.75,18.75,0,0,0,56,106.12Z"/><polygon class="b" points="84.7 63.32 92.31 76.8 107.48 79.88 97.01 91.28 98.78 106.66 84.7 100.23 70.62 106.66 72.38 91.28 61.91 79.88 77.09 76.8 84.7 63.32"/></svg>