<svg xmlns="http://www.w3.org/2000/svg" viewBox="0 0 129.97 127.24"><defs><style>.a{fill:#42bfec;}.b{fill:#ade0f3;}</style></defs><title>downfallAsset 8</title><path class="a" d="M100.73,37h0c0-.25,0-.5,0-.76a36.26,36.26,0,0,0-72.51,0s0,0,0,.07a29.6,29.6,0,0,0,1.38,59.16h71.12a29.24,29.24,0,1,0,0-58.47Z"/><path class="b" d="M22.31,79.24a2.52,2.52,0,0,1-2.51-2.51V60a2.52,2.52,0,0,1,5,0V76.73A2.52,2.52,0,0,1,22.31,79.24Z"/><path class="b" d="M22.31,127.24a2.52,2.52,0,0,1-2.51-2.51V90.41a2.52,2.52,0,0,1,5,0v34.32A2.52,2.52,0,0,1,22.31,127.24Z"/><path class="b" d="M43.65,69.74a2.51,2.51,0,0,1-2.51-2.52V42.85a2.51,2.51,0,0,1,5,0V67.22A2.51,2.51,0,0,1,43.65,69.74Z"/><path class="b" d="M43.65,97.74a2.51,2.51,0,0,1-2.51-2.52V79.34a2.51,2.51,0,0,1,5,0V95.22A2.51,2.51,0,0,1,43.65,97.74Z"/><path class="b" d="M43.65,127.24a2.51,2.51,0,0,1-2.51-2.51V112a2.51,2.51,0,0,1,5,0v12.7A2.51,2.51,0,0,1,43.65,127.24Z"/><path class="b" d="M65,127.24a2.52,2.52,0,0,1-2.51-2.51V90.41a2.52,2.52,0,0,1,5,0v34.32A2.52,2.52,0,0,1,65,127.24Z"/><path class="b" d="M86.32,127.24a2.51,2.51,0,0,1-2.51-2.51V112a2.51,2.51,0,1,1,5,0v12.7A2.51,2.51,0,0,1,86.32,127.24Z"/><path class="b" d="M107.66,127.24a2.52,2.52,0,0,1-2.52-2.51V98.46a2.52,2.52,0,0,1,5,0v26.27A2.52,2.52,0,0,1,107.66,127.24Z"/><path class="b" d="M107.66,84a2.51,2.51,0,0,1-2.52-2.51V69.6a2.52,2.52,0,0,1,5,0V81.5A2.51,2.51,0,0,1,107.66,84Z"/><path class="b" d="M86.32,104.08a2.51,2.51,0,0,1-2.51-2.51V50.46a2.51,2.51,0,0,1,5,0v51.11A2.51,2.51,0,0,1,86.32,104.08Z"/><path class="b" d="M65,78.41a2.52,2.52,0,0,1-2.51-2.51V60.84a2.52,2.52,0,0,1,5,0V75.9A2.52,2.52,0,0,1,65,78.41Z"/></svg>