<svg xmlns="http://www.w3.org/2000/svg" viewBox="0 0 114.48 95.25"><defs><style>.a{fill:#f39e68;}.b{fill:#ade0f3;}</style></defs><title>sand-stormAsset 14</title><circle class="a" cx="36.94" cy="12.57" r="2.3"/><circle class="a" cx="36.94" cy="19.67" r="2.3"/><circle class="a" cx="36.94" cy="26.41" r="2.3"/><circle class="a" cx="36.94" cy="33.16" r="2.3"/><circle class="a" cx="45.6" cy="12.57" r="2.3"/><circle class="a" cx="45.6" cy="19.67" r="2.3"/><circle class="a" cx="45.6" cy="26.41" r="2.3"/><circle class="a" cx="45.6" cy="33.16" r="2.3"/><circle class="a" cx="54.26" cy="12.57" r="2.3"/><circle class="a" cx="54.26" cy="19.67" r="2.3"/><circle class="a" cx="54.26" cy="26.41" r="2.3"/><circle class="a" cx="54.26" cy="33.16" r="2.3"/><circle class="a" cx="62.92" cy="12.57" r="2.3"/><circle class="a" cx="62.92" cy="19.67" r="2.3"/><circle class="a" cx="62.92" cy="26.41" r="2.3"/><circle class="a" cx="62.92" cy="33.16" r="2.3"/><circle class="a" cx="36.94" cy="40.29" r="2.3"/><circle class="a" cx="36.94" cy="47.39" r="2.3"/><circle class="a" cx="36.94" cy="54.14" r="2.3"/><circle class="a" cx="36.94" cy="60.88" r="2.3"/><circle class="a" cx="45.6" cy="40.29" r="2.3"/><circle class="a" cx="45.6" cy="47.39" r="2.3"/><circle class="a" cx="45.6" cy="54.14" r="2.3"/><circle class="a" cx="45.6" cy="60.88" r="2.3"/><circle class="a" cx="54.26" cy="40.29" r="2.3"/><circle class="a" cx="54.26" cy="47.39" r="2.3"/><circle class="a" cx="54.26" cy="54.14" r="2.3"/><circle class="a" cx="54.26" cy="60.88" r="2.3"/><circle class="a" cx="62.92" cy="40.29" r="2.3"/><circle class="a" cx="62.92" cy="47.39" r="2.3"/><circle class="a" cx="62.92" cy="54.14" r="2.3"/><circle class="a" cx="62.92" cy="60.88" r="2.3"/><circle class="a" cx="36.94" cy="12.84" r="2.3"/><circle class="a" cx="36.94" cy="19.94" r="2.3"/><circle class="a" cx="36.94" cy="26.68" r="2.3"/><circle class="a" cx="36.94" cy="33.43" r="2.3"/><circle class="a" cx="45.6" cy="12.84" r="2.3"/><circle class="a" cx="45.6" cy="19.94" r="2.3"/><circle class="a" cx="45.6" cy="26.68" r="2.3"/><circle class="a" cx="45.6" cy="33.43" r="2.3"/><circle class="a" cx="54.26" cy="12.84" r="2.3"/><circle class="a" cx="54.26" cy="19.94" r="2.3"/><circle class="a" cx="54.26" cy="26.68" r="2.3"/><circle class="a" cx="54.26" cy="33.43" r="2.3"/><circle class="a" cx="62.92" cy="12.84" r="2.3"/><circle class="a" cx="62.92" cy="19.94" r="2.3"/><circle class="a" cx="62.92" cy="26.68" r="2.3"/><circle class="a" cx="62.92" cy="33.43" r="2.3"/><path class="b" d="M89.76,95.25A22.52,22.52,0,0,1,67.27,72.76a15.37,15.37,0,0,1,30.74,0v2.59a5,5,0,0,1-10,0V72.76a5.33,5.33,0,0,0-10.66,0,12.45,12.45,0,0,0,24.89,0V67.62a17,17,0,0,0-17-17H6.3a5,5,0,0,1,0-10H85.19a27.09,27.09,0,0,1,27.06,27.06v5.14A22.52,22.52,0,0,1,89.76,95.25Z"/><circle class="a" cx="2.3" cy="12.57" r="2.3"/><circle class="a" cx="2.3" cy="19.67" r="2.3"/><circle class="a" cx="2.3" cy="26.41" r="2.3"/><circle class="a" cx="2.3" cy="33.16" r="2.3"/><circle class="a" cx="10.96" cy="12.57" r="2.3"/><circle class="a" cx="10.96" cy="19.67" r="2.3"/><circle class="a" cx="10.96" cy="26.41" r="2.3"/><circle class="a" cx="10.96" cy="33.16" r="2.3"/><circle class="a" cx="19.62" cy="12.57" r="2.3"/><circle class="a" cx="19.62" cy="19.67" r="2.3"/><circle class="a" cx="19.62" cy="26.41" r="2.3"/><circle class="a" cx="19.62" cy="33.16" r="2.3"/><circle class="a" cx="28.28" cy="12.57" r="2.3"/><circle class="a" cx="28.28" cy="19.67" r="2.3"/><circle class="a" cx="28.28" cy="26.41" r="2.3"/><circle class="a" cx="28.28" cy="33.16" r="2.3"/><circle class="a" cx="2.4" cy="40.07" r="2.3"/><circle class="a" cx="2.4" cy="47.17" r="2.3"/><circle class="a" cx="2.4" cy="53.91" r="2.3"/><circle class="a" cx="2.4" cy="60.66" r="2.3"/><circle class="a" cx="11.06" cy="40.07" r="2.3"/><circle class="a" cx="11.06" cy="47.17" r="2.3"/><circle class="a" cx="11.06" cy="53.91" r="2.3"/><circle class="a" cx="11.06" cy="60.66" r="2.3"/><circle class="a" cx="19.72" cy="40.07" r="2.3"/><circle class="a" cx="19.72" cy="47.17" r="2.3"/><circle class="a" cx="19.72" cy="53.91" r="2.3"/><circle class="a" cx="19.72" cy="60.66" r="2.3"/><circle class="a" cx="28.38" cy="40.07" r="2.3"/><circle class="a" cx="28.38" cy="47.17" r="2.3"/><circle class="a" cx="28.38" cy="53.91" r="2.3"/><circle class="a" cx="28.38" cy="60.66" r="2.3"/><circle class="a" cx="71.58" cy="12.84" r="2.3"/><circle class="a" cx="71.58" cy="19.94" r="2.3"/><circle class="a" cx="71.58" cy="26.68" r="2.3"/><circle class="a" cx="71.58" cy="33.43" r="2.3"/><circle class="a" cx="80.24" cy="12.84" r="2.3"/><circle class="a" cx="80.24" cy="19.94" r="2.3"/><circle class="a" cx="80.24" cy="26.68" r="2.3"/><circle class="a" cx="80.24" cy="33.43" r="2.3"/><circle class="a" cx="88.9" cy="12.84" r="2.3"/><circle class="a" cx="88.9" cy="19.94" r="2.3"/><circle class="a" cx="88.9" cy="26.68" r="2.3"/><circle class="a" cx="88.9" cy="33.43" r="2.3"/><circle class="a" cx="97.56" cy="12.84" r="2.3"/><circle class="a" cx="97.56" cy="19.94" r="2.3"/><circle class="a" cx="97.56" cy="26.68" r="2.3"/><circle class="a" cx="97.56" cy="33.43" r="2.3"/><circle class="a" cx="71.58" cy="40.56" r="2.3"/><circle class="a" cx="71.58" cy="47.66" r="2.3"/><circle class="a" cx="71.58" cy="54.41" r="2.3"/><circle class="a" cx="71.58" cy="61.16" r="2.3"/><circle class="a" cx="80.24" cy="40.56" r="2.3"/><circle class="a" cx="80.24" cy="47.66" r="2.3"/><circle class="a" cx="80.24" cy="54.41" r="2.3"/><circle class="a" cx="80.24" cy="61.16" r="2.3"/><circle class="a" cx="88.9" cy="40.56" r="2.3"/><circle class="a" cx="88.9" cy="47.66" r="2.3"/><circle class="a" cx="88.9" cy="54.41" r="2.3"/><circle class="a" cx="88.9" cy="61.16" r="2.3"/><circle class="a" cx="97.56" cy="40.56" r="2.3"/><circle class="a" cx="97.56" cy="47.66" r="2.3"/><circle class="a" cx="97.56" cy="54.41" r="2.3"/><circle class="a" cx="97.56" cy="61.16" r="2.3"/><circle class="a" cx="37.04" cy="40.34" r="2.3"/><circle class="a" cx="37.04" cy="47.44" r="2.3"/><circle class="a" cx="37.04" cy="54.18" r="2.3"/><circle class="a" cx="37.04" cy="60.93" r="2.3"/><circle class="a" cx="45.7" cy="40.34" r="2.3"/><circle class="a" cx="45.7" cy="47.44" r="2.3"/><circle class="a" cx="45.7" cy="54.18" r="2.3"/><circle class="a" cx="45.7" cy="60.93" r="2.3"/><circle class="a" cx="54.36" cy="40.34" r="2.3"/><circle class="a" cx="54.36" cy="47.44" r="2.3"/><circle class="a" cx="54.36" cy="54.18" r="2.3"/><circle class="a" cx="54.36" cy="60.93" r="2.3"/><circle class="a" cx="63.02" cy="40.34" r="2.3"/><circle class="a" cx="63.02" cy="47.44" r="2.3"/><circle class="a" cx="63.02" cy="54.18" r="2.3"/><circle class="a" cx="63.02" cy="60.93" r="2.3"/><path class="b" d="M96.84,35.28H38.3a5,5,0,1,1,0-10H96.84a7.59,7.59,0,1,0,0-15.18H89.41a5,5,0,1,1,0-10h7.43a17.64,17.64,0,0,1,0,35.28Z"/></svg>