<svg xmlns="http://www.w3.org/2000/svg" viewBox="0 0 129.97 148.14"><defs><style>.a{fill:#42bfec;}.b{fill:#ade0f3;}</style></defs><title>drifting-snowAsset 13</title><path class="a" d="M100.73,37h0c0-.25,0-.5,0-.76a36.26,36.26,0,0,0-72.51,0s0,0,0,.07a29.6,29.6,0,0,0,1.38,59.16h71.12a29.24,29.24,0,1,0,0-58.47Z"/><polygon class="b" points="29.52 134.18 31.46 137.6 35.31 138.38 32.65 141.28 33.1 145.18 29.52 143.55 25.95 145.18 26.4 141.28 23.74 138.38 27.59 137.6 29.52 134.18"/><polygon class="b" points="69.44 89.39 72.51 94.82 78.63 96.06 74.41 100.66 75.12 106.86 69.44 104.27 63.77 106.86 64.48 100.66 60.26 96.06 66.38 94.82 69.44 89.39"/><polygon class="b" points="91.3 114.17 93.23 117.59 97.08 118.37 94.43 121.27 94.87 125.17 91.3 123.54 87.73 125.17 88.17 121.27 85.52 118.37 89.37 117.59 91.3 114.17"/><polygon class="b" points="67.6 130.67 70.67 136.1 76.78 137.34 72.56 141.94 73.27 148.14 67.6 145.55 61.92 148.14 62.63 141.94 58.41 137.34 64.53 136.1 67.6 130.67"/><polygon class="b" points="33.44 79.07 36.51 84.5 42.63 85.74 38.41 90.34 39.12 96.54 33.44 93.95 27.76 96.54 28.48 90.34 24.25 85.74 30.37 84.5 33.44 79.07"/><polygon class="b" points="42.88 111.57 44.81 114.99 48.66 115.77 46.01 118.66 46.45 122.57 42.88 120.93 39.31 122.57 39.75 118.66 37.1 115.77 40.95 114.99 42.88 111.57"/><polygon class="b" points="98.94 83.89 100.88 87.31 104.73 88.09 102.07 90.98 102.52 94.89 98.94 93.26 95.37 94.89 95.82 90.98 93.16 88.09 97.01 87.31 98.94 83.89"/></svg>