<svg xmlns="http://www.w3.org/2000/svg" viewBox="0 0 129.97 172.18"><defs><style>.a{fill:#42bfec;}.b{fill:#ade0f3;}</style></defs><title>rainsnowAsset 14</title><path class="a" d="M100.73,37h0c0-.25,0-.5,0-.76a36.26,36.26,0,0,0-72.51,0s0,0,0,.07a29.6,29.6,0,0,0,1.38,59.16h71.12a29.24,29.24,0,1,0,0-58.47Z"/><polygon class="b" points="73.21 115.83 83.1 133.36 102.84 137.35 89.22 152.18 91.52 172.19 73.21 163.82 54.89 172.19 57.19 152.18 43.58 137.35 63.31 133.36 73.21 115.83"/><polygon class="b" points="87.98 54.13 97.24 70.53 115.7 74.27 102.97 88.15 105.11 106.86 87.98 99.04 70.85 106.86 73 88.15 60.26 74.27 78.72 70.53 87.98 54.13"/><polygon class="b" points="33.44 71.76 41.74 86.46 58.28 89.81 46.87 102.25 48.8 119.02 33.44 112 18.09 119.02 20.01 102.25 8.6 89.81 25.14 86.46 33.44 71.76"/></svg>