<svg xmlns="http://www.w3.org/2000/svg" viewBox="0 0 129.97 133.57"><defs><style>.a{fill:#42bfec;}.b{fill:#ade0f3;}</style></defs><title>snowAsset 7</title><path class="a" d="M100.73,37h0c0-.25,0-.5,0-.76a36.26,36.26,0,0,0-72.51,0s0,0,0,.07a29.6,29.6,0,0,0,1.38,59.16h71.12a29.24,29.24,0,1,0,0-58.47Z"/><polygon class="b" points="42.89 100.53 48.69 110.81 60.26 113.15 52.28 121.84 53.62 133.57 42.89 128.66 32.16 133.57 33.5 121.84 25.52 113.15 37.09 110.81 42.89 100.53"/><polygon class="b" points="83.04 63.52 90.65 77.01 105.83 80.08 95.36 91.48 97.12 106.86 83.04 100.43 68.96 106.86 70.73 91.48 60.26 80.08 75.43 77.01 83.04 63.52"/></svg>