<svg xmlns="http://www.w3.org/2000/svg" viewBox="0 0 129.97 144.01"><defs><style>.a{fill:#ade0f3;}.b{fill:#42bfec;}.c{fill:#faaf40;}</style></defs><title>thunderstormAsset 9</title><path class="a" d="M90.06,105.32l-9.23,19.61A15.11,15.11,0,0,0,81,138.5a10.23,10.23,0,0,0,18.15,0,15.08,15.08,0,0,0,.15-13.57Z"/><path class="b" d="M100.73,37h0c0-.25,0-.5,0-.76a36.26,36.26,0,0,0-72.51,0s0,0,0,.07a29.6,29.6,0,0,0,1.38,59.16h71.12a29.24,29.24,0,1,0,0-58.47Z"/><polygon class="c" points="90.06 86.61 54.03 86.61 72.3 54.13 54.03 54.13 28.15 100.75 56.06 100.75 44.9 142.94 90.06 86.61"/></svg>