<svg class="svg-icon" style="width: 1em; height: 1em;vertical-align: middle;fill: currentColor;overflow: hidden;" viewBox="0 0 1024 1024" version="1.1" xmlns="http://www.w3.org/2000/svg"><path d="M532.946 536.457c1.43-26.84-6.986-50.07-24.971-69.046-27.703-29.207-77.114-45.945-135.563-45.945-48.127 0-95.923 11.66-131.125 31.993-5.592 3.227-11.11 6.784-17.6 11.55l-52.527 51.28c-40.079 51.593-59.825 113.048-51.537 160.423 5.262 29.977 21.487 54.325 46.953 70.422 20.827 13.145 40.188 19.526 59.22 19.526 44.844 0 78.23-35.88 113.597-73.85 24.879-26.73 50.62-54.379 82.448-72.768 33.038-19.067 55.955-30.25 71.136-37.64 30.38-14.813 38.538-18.791 39.969-45.945z m-49.594-4.803c-3.355 1.723-7.59 3.795-12.21 6.05-15.805 7.7-39.657 19.342-74.162 39.27-38.373 22.13-67.928 53.903-94.035 81.99-28.968 31.095-53.975 57.955-77.149 57.955-9.35 0-20.021-3.887-32.653-11.862-9.057-5.72-15.51-12.779-19.71-21.56-4.18-8.764-6.196-19.38-5.958-31.553 0.532-26.126 11.055-56.726 29.646-86.17 18.83-29.81 43.342-54.397 69.028-69.248 27.885-16.079 66.625-25.32 106.263-25.32 44.203 0 81.385 11.387 99.463 30.435 7.975 8.434 11.66 18.023 11.477 30.013zM772.645 665.566c-35.605-8.176-72.42-16.647-104.247-35.018-33.02-19.066-54.159-33.33-68.148-42.773-18.168-12.265-27.281-18.407-38.19-18.407-6.93 0-13.402 2.585-21.578 6.765-32.891 16.721-50.823 46.477-51.867 86.023-1.908 72.309 55.697 167.591 125.825 208.073 5.06 2.915 10.359 5.647 17.087 8.672l66.7 19.801c14.85 2.329 29.921 3.52 44.771 3.52 73.116 0 159.708-29.884 163.1-114.146 3.63-90.994-62.959-106.303-133.453-122.51z m83.731 120.51c-0.807 20.057-10.175 34.87-29.48 46.66-20.828 12.742-50.64 19.746-83.897 19.746-38.007 0-75.81-9.24-103.716-25.338-26.126-15.088-52.288-42.022-71.777-73.886-19.214-31.369-29.848-64.096-29.151-89.8 0.531-20.167 7.755-33.55 22.77-41.966 3.355 2.164 7.407 4.913 11.514 7.682 14.539 9.81 36.521 24.623 70.898 44.442 38.208 22.074 80.45 31.81 117.96 40.445 30.637 7.04 59.586 13.677 76.655 25.282 10.157 6.911 19.398 17.361 18.224 46.733zM563.234 418.533c0 38.117-1.779 63.564-2.952 80.395-2.366 33.716-3.007 42.773 19.8 57.587 15.823 10.322 32.8 15.548 50.42 15.548 86.169 0 167.297-127.679 167.297-226.627 0-12.119-1.173-24.897-3.831-39.327l-24.274-72.217c-26.915-54.195-78.085-112.113-141.026-112.113h-0.018c-16.409 0-32.487 4.089-47.815 12.138-80.614 42.351-60.594 107.675-39.382 176.831 10.706 34.926 21.78 71.026 21.78 107.785z m25.777-122.38c-9.222-30.068-17.93-58.486-16.409-79.038 0.917-12.266 5.354-25.503 31.351-39.162 20.131-10.56 40.427-8.067 62.721 6.784 14.172 9.46 28.161 23.614 40.408 40.94 12.449 17.6 22.826 37.97 29.995 58.907 7.17 20.956 10.964 42.003 10.964 60.85 0 37.64-15.932 84.043-41.563 121.096-23.816 34.413-52.93 55.79-75.977 55.79-7.297 0-14.337-2.07-21.45-6.343 0.183-3.996 0.531-8.928 0.88-13.989 1.228-17.49 3.061-43.91 3.061-83.474 0-44.148-12.724-85.656-23.981-122.36z" fill="" /></svg>