<svg xmlns="http://www.w3.org/2000/svg" version="1.1" viewBox="150 222 1000 308">
 <g>
  <path d="m598.59 508.13-52.094-81.93v7.1055c0 10.418-4.2617 19.891-11.367 26.52l26.52 42.148h-372.71l69.617-116.5 18.469 11.84c5.6836 3.7891 11.84 5.2109 17.996 5.2109 5.6836 0 11.367-1.4219 16.574-4.2617l19.418-10.891c2.3672-1.4219 4.7344-0.94531 6.6289 0.47266l8.9961 6.6289c10.418 7.5781 25.102 8.5234 36.465 1.8945l20.363-11.84c1.8945-0.94531 3.7891-0.94531 5.6836 0l28.887 14.207c9.9453 4.7344 21.785 4.7344 31.258-0.94531l3.7891-2.3672v-31.258l-16.57 9.4688c-1.8945 0.94531-3.7891 0.94531-5.6836 0l-28.887-14.207c-9.9453-5.2109-21.785-4.7344-31.73 0.94531l-20.836 11.84c-2.3672 1.4219-4.7344 0.94531-6.6289-0.47266l-8.9961-6.6289c-10.418-7.5781-24.625-8.5234-36.465-1.8945l-19.891 11.367c-1.8945 0.94531-4.2617 0.94531-6.1562 0l-19.418-12.312 41.203-69.145 27.469 34.098c2.8398 3.3164 6.6289 5.2109 10.891 5.2109 4.2617 0 8.5234-2.3672 10.891-5.6836l46.879-65.828 27.469 43.57c0.47266-0.47266 0.94531-1.4219 1.4219-1.8945l17.996-17.996-34.574-55.41c-2.3672-3.7891-6.6289-6.1562-11.367-6.1562h-0.47266c-4.2617 0-8.5234 2.3672-11.367 5.6836l-47.355 67.246-28.414-35.52c-2.8398-3.3164-7.1055-5.2109-11.84-5.2109-4.2617 0.47266-8.5234 2.8398-10.891 6.6289l-146.81 246.74c-2.3672 4.2617-2.3672 9.4727 0 13.734 2.3672 4.2617 7.1055 7.1055 11.84 7.1055h422.43c5.2109 0 9.4727-2.8398 11.84-7.1055 2.8398-4.2656 2.3672-9.9453-0.47266-14.211z"/>
  <path d="m454.62 338.11c5.2109 5.2109 14.207 5.2109 19.418 0l22.73-22.73v117.92c0 7.5781 6.1562 13.734 13.734 13.734s13.734-6.1562 13.734-13.734l-0.003906-117.92 22.262 22.73c2.8398 2.8398 6.1562 3.7891 9.4727 3.7891s7.1055-1.4219 9.4727-3.7891c5.2109-5.2109 5.2109-14.207 0-19.418l-45.938-45.938c-2.3672-2.3672-6.1562-3.7891-9.4727-3.7891s-7.1055 1.4219-9.4727 3.7891l-45.938 45.938c-5.2109 5.2109-5.2109 14.211 0 19.418z"/>
 </g>
</svg>