<svg xmlns="http://www.w3.org/2000/svg" viewBox="0 0 406.87 406.86"><defs><style>.a{fill:#fb0;}</style></defs><title>logoAsset 1</title><path class="a" d="M324.55,203.43A121.12,121.12,0,1,1,203.43,82.31,121.12,121.12,0,0,1,324.55,203.43Z"/><path class="a" d="M203.43,367.06c-90.23,0-163.63-73.4-163.63-163.63S113.2,39.8,203.43,39.8s163.64,73.4,163.64,163.63S293.66,367.06,203.43,367.06Zm0-319C117.75,48,48,117.75,48,203.43s69.71,155.39,155.39,155.39,155.39-69.71,155.39-155.39S289.11,48,203.43,48Z"/><path class="a" d="M203.43,406.86C91.26,406.86,0,315.6,0,203.43S91.26,0,203.43,0,406.87,91.26,406.87,203.43,315.61,406.86,203.43,406.86Zm0-396.61C96.91,10.25,10.25,96.91,10.25,203.43S96.91,396.61,203.43,396.61,396.61,310,396.61,203.43,310,10.25,203.43,10.25Z"/><path class="a" d="M193.64,348.81h0a6.36,6.36,0,0,1-5.93-6.75h0a6.38,6.38,0,0,1,6.79-5.93h0a6.35,6.35,0,0,1,5.9,6.75h0a6.34,6.34,0,0,1-6.31,6h0C193.92,348.85,193.78,348.81,193.64,348.81Zm13.1-5.93a6.31,6.31,0,0,1,5.89-6.75v0a6.37,6.37,0,0,1,6.79,5.92h0a6.36,6.36,0,0,1-5.93,6.79H213A6.32,6.32,0,0,1,206.74,342.88ZM174,346.16h0a6.34,6.34,0,0,1-4.93-7.51h0a6.37,6.37,0,0,1,7.51-5h0a6.36,6.36,0,0,1,4.93,7.51h0a6.35,6.35,0,0,1-6.2,5.1h0A5.4,5.4,0,0,1,174,346.16Zm51.73-5a6.32,6.32,0,0,1,4.93-7.51h0a6.33,6.33,0,0,1,7.51,4.93h0a6.36,6.36,0,0,1-4.93,7.51h0a6,6,0,0,1-1.31.14h0A6.33,6.33,0,0,1,225.69,341.16Zm-70.92-.34h0a6.37,6.37,0,0,1-3.86-8.14h0a6.34,6.34,0,0,1,8.1-3.86h0A6.41,6.41,0,0,1,162.9,337h0a6.4,6.4,0,0,1-6,4.23h0A6.49,6.49,0,0,1,154.77,340.82Zm89.42-4a6.35,6.35,0,0,1,3.87-8.09h0a6.36,6.36,0,0,1,8.13,3.86h0a6.3,6.3,0,0,1-3.86,8.09h0a5.66,5.66,0,0,1-2.14.38h0A6.41,6.41,0,0,1,244.19,336.85ZM136.5,332.93a6.43,6.43,0,0,1-2.72-8.59h0a6.36,6.36,0,0,1,8.58-2.72h0a6.34,6.34,0,0,1,2.72,8.58h0a6.34,6.34,0,0,1-5.65,3.41h0A6.56,6.56,0,0,1,136.5,332.93ZM262,330.06a6.32,6.32,0,0,1,2.73-8.54h0a6.37,6.37,0,0,1,8.58,2.68h0a6.36,6.36,0,0,1-2.72,8.59h0a6.37,6.37,0,0,1-2.93.72h0A6.39,6.39,0,0,1,262,330.06Zm-142.42-7.47a6.33,6.33,0,0,1-1.55-8.86h0a6.32,6.32,0,0,1,8.85-1.55h0A6.36,6.36,0,0,1,128.4,321h0a6.37,6.37,0,0,1-5.2,2.73h0A6.24,6.24,0,0,1,119.55,322.59Zm159.11-1.66a6.35,6.35,0,0,1,1.51-8.86h0a6.35,6.35,0,0,1,8.86,1.49h0a6.35,6.35,0,0,1-1.52,8.89h0a6.22,6.22,0,0,1-3.65,1.17h0A6.33,6.33,0,0,1,278.66,320.93ZM104.11,310a6.37,6.37,0,0,1-.34-9h0a6.4,6.4,0,0,1,9-.31h0a6.36,6.36,0,0,1,.34,9h0a6.38,6.38,0,0,1-4.65,2h0A6.36,6.36,0,0,1,104.11,310Zm189.82-.45a6.4,6.4,0,0,1,.3-9h0a6.34,6.34,0,0,1,9,.31h0a6.29,6.29,0,0,1-.3,9h0a6.21,6.21,0,0,1-4.34,1.72h0A6.34,6.34,0,0,1,293.93,309.59ZM90.53,295.53a6.36,6.36,0,0,1,.9-9h0a6.36,6.36,0,0,1,8.93.93h0a6.33,6.33,0,0,1-.9,8.93h0a6.26,6.26,0,0,1-4,1.45h0A6.25,6.25,0,0,1,90.53,295.53Zm217,.76a6.36,6.36,0,0,1-.89-9h0a6.35,6.35,0,0,1,8.92-.93h0a6.38,6.38,0,0,1,.93,9h0a6.36,6.36,0,0,1-4.92,2.35h0A6.67,6.67,0,0,1,307.53,296.29ZM79,279.34h0a6.39,6.39,0,0,1,2.11-8.76h0a6.38,6.38,0,0,1,8.75,2.11v0a6.35,6.35,0,0,1-2.1,8.72h0a6.54,6.54,0,0,1-3.31.93h0A6.35,6.35,0,0,1,79,279.34Zm240.2,1.89a6.34,6.34,0,0,1-2.11-8.72h0a6.36,6.36,0,0,1,8.73-2.13h0a6.38,6.38,0,0,1,2.13,8.75h0a6.37,6.37,0,0,1-5.45,3h0A6,6,0,0,1,319.22,281.23ZM69.86,261.73h0a6.36,6.36,0,0,1,3.27-8.38h0a6.34,6.34,0,0,1,8.37,3.28h0A6.35,6.35,0,0,1,78.23,265h0a6.53,6.53,0,0,1-2.55.52h0A6.34,6.34,0,0,1,69.86,261.73Zm258.9,3a6.34,6.34,0,0,1-3.31-8.37h0a6.37,6.37,0,0,1,8.38-3.28h0a6.41,6.41,0,0,1,3.31,8.38h0a6.47,6.47,0,0,1-5.86,3.82h0A6,6,0,0,1,328.76,264.76ZM63.14,243a6.35,6.35,0,0,1,4.41-7.82h0a6.35,6.35,0,0,1,7.85,4.37h0A6.4,6.4,0,0,1,71,247.39h0a5.63,5.63,0,0,1-1.72.24h0A6.35,6.35,0,0,1,63.14,243Zm272.79,4.14a6.37,6.37,0,0,1-4.41-7.83h0a6.41,6.41,0,0,1,7.85-4.41h0a6.35,6.35,0,0,1,4.42,7.82h0a6.37,6.37,0,0,1-6.14,4.66h0A6.15,6.15,0,0,1,335.93,247.12ZM59.1,223.54v0h0a6.33,6.33,0,0,1,5.41-7.13h0a6.33,6.33,0,0,1,7.17,5.41h0A6.35,6.35,0,0,1,66.27,229h0c-.31,0-.59.06-.86.06h0A6.35,6.35,0,0,1,59.1,223.54Zm281.55,5.14a6.31,6.31,0,0,1-5.44-7.13h0a6.35,6.35,0,0,1,7.16-5.45h0a6.36,6.36,0,0,1,5.45,7.17h0a6.38,6.38,0,0,1-6.31,5.48h0A8.54,8.54,0,0,1,340.65,228.68Zm-282.92-25h0a6.34,6.34,0,0,1,6.34-6.35h0a6.34,6.34,0,0,1,6.37,6.35h0a6.37,6.37,0,0,1-6.34,6.37h0A6.38,6.38,0,0,1,57.73,203.7Zm278.68-.28a.51.51,0,0,1,0-.24h0a.66.66,0,0,1,0-.28h0a6.36,6.36,0,0,1,6.35-6.37h0a6.35,6.35,0,0,1,6.37,6.34h0v.21h0v.34h0a6.36,6.36,0,0,1-6.34,6.38h0A6.4,6.4,0,0,1,336.41,203.42ZM64.48,191.05A6.37,6.37,0,0,1,59,183.88h0a6.31,6.31,0,0,1,7.14-5.44h0a6.3,6.3,0,0,1,5.44,7.13h0a6.31,6.31,0,0,1-6.27,5.51h0A8.33,8.33,0,0,1,64.48,191.05Zm270.66-6.24a6.39,6.39,0,0,1,5.41-7.2h0a6.37,6.37,0,0,1,7.17,5.44h0a6.34,6.34,0,0,1-5.41,7.17h0a6.82,6.82,0,0,1-.9.07h0A6.37,6.37,0,0,1,335.14,184.81ZM67.44,172.23A6.35,6.35,0,0,1,63,164.41h0A6.37,6.37,0,0,1,70.82,160h0a6.42,6.42,0,0,1,4.45,7.86h0a6.41,6.41,0,0,1-6.14,4.65h0A5.85,5.85,0,0,1,67.44,172.23Zm263.94-5.17a6.36,6.36,0,0,1,4.41-7.85h0a6.3,6.3,0,0,1,7.83,4.37h0a6.37,6.37,0,0,1-4.38,7.86h0a6.2,6.2,0,0,1-1.72.24h0A6.38,6.38,0,0,1,331.38,167.06ZM72.93,154a6.36,6.36,0,0,1-3.31-8.34h0v0h0A6.39,6.39,0,0,1,78,142.32h0a6.42,6.42,0,0,1,3.31,8.37h0a6.31,6.31,0,0,1-5.83,3.83h0A6.45,6.45,0,0,1,72.93,154Zm252.32-4a6.34,6.34,0,0,1,3.27-8.37h0a6.37,6.37,0,0,1,8.38,3.24h0a6.36,6.36,0,0,1-3.28,8.41h0a6.71,6.71,0,0,1-2.55.51h0A6.38,6.38,0,0,1,325.25,150ZM80.88,136.7A6.33,6.33,0,0,1,78.75,128h0a6.35,6.35,0,0,1,8.72-2.13h0a6.35,6.35,0,0,1,2.17,8.72h0a6.42,6.42,0,0,1-5.45,3.06h0A6.43,6.43,0,0,1,80.88,136.7Zm236-2.75a6.37,6.37,0,0,1,2.1-8.76h0a6.35,6.35,0,0,1,8.75,2.1h0a6.32,6.32,0,0,1-2.1,8.72h0a6.09,6.09,0,0,1-3.31,1h0A6.45,6.45,0,0,1,316.84,134ZM91.12,120.68a6.39,6.39,0,0,1-.93-9h0a6.39,6.39,0,0,1,9-.93h0a6.35,6.35,0,0,1,.93,8.92h0a6.43,6.43,0,0,1-5,2.38h0A6.42,6.42,0,0,1,91.12,120.68Zm215.21-1.52h0a6.35,6.35,0,0,1,.9-9h0a6.34,6.34,0,0,1,8.92.9h0a6.39,6.39,0,0,1-.86,9h0a6.44,6.44,0,0,1-4,1.41h0A6.37,6.37,0,0,1,306.33,119.16Zm-202.87-13a6.32,6.32,0,0,1,.27-9h0a6.37,6.37,0,0,1,9,.27h0a6.39,6.39,0,0,1-.31,9h0a6.42,6.42,0,0,1-4.35,1.72h0A6.29,6.29,0,0,1,103.46,106.14Zm190.43-.21h0a6.32,6.32,0,0,1-.31-9h0a6.33,6.33,0,0,1,9-.35h0a6.38,6.38,0,0,1,.35,9h0a6.39,6.39,0,0,1-4.66,2h0A6.41,6.41,0,0,1,293.89,105.93ZM117.62,93.45a6.34,6.34,0,0,1,1.48-8.85h0v0h0A6.36,6.36,0,0,1,128,86.08h0a6.36,6.36,0,0,1-1.48,8.86h0a6.49,6.49,0,0,1-3.69,1.2h0A6.28,6.28,0,0,1,117.62,93.45Zm162.17,1.07a6.33,6.33,0,0,1-1.55-8.85h0a6.35,6.35,0,0,1,8.86-1.55h0A6.36,6.36,0,0,1,288.65,93h0a6.33,6.33,0,0,1-5.2,2.69h0A6.26,6.26,0,0,1,279.79,94.52ZM133.37,82.77a6.31,6.31,0,0,1,2.68-8.58h0a6.4,6.4,0,0,1,8.59,2.69h0A6.37,6.37,0,0,1,142,85.46h0a6.13,6.13,0,0,1-3,.72h0A6.3,6.3,0,0,1,133.37,82.77Zm130.88,2.34h0a6.33,6.33,0,0,1-2.72-8.54h0a6.36,6.36,0,0,1,8.55-2.76h0a6.39,6.39,0,0,1,2.75,8.58h0a6.42,6.42,0,0,1-5.65,3.45h0A6.29,6.29,0,0,1,264.25,85.11ZM150.42,74.36a6.33,6.33,0,0,1,3.83-8.13h0a6.32,6.32,0,0,1,8.13,3.82h0a6.39,6.39,0,0,1-3.82,8.14h0a6.13,6.13,0,0,1-2.17.38h0A6.37,6.37,0,0,1,150.42,74.36ZM247.61,78a6.37,6.37,0,0,1-3.89-8.14h0A6.32,6.32,0,0,1,251.81,66h0a6.35,6.35,0,0,1,3.9,8.1h0a6.36,6.36,0,0,1-6,4.24h0A6.41,6.41,0,0,1,247.61,78Zm-79.13-9.62a6.34,6.34,0,0,1,4.9-7.51h0a6.38,6.38,0,0,1,7.55,4.93h0A6.36,6.36,0,0,1,176,73.26h0a5.94,5.94,0,0,1-1.3.14h0A6.35,6.35,0,0,1,168.48,68.33Zm61.62,4.76a6.33,6.33,0,0,1-5-7.48h0a6.33,6.33,0,0,1,7.51-5h0a6.34,6.34,0,0,1,5,7.48h0a6.36,6.36,0,0,1-6.23,5.1h0A5.76,5.76,0,0,1,230.1,73.09Zm-42.94-8.24a6.39,6.39,0,0,1,5.93-6.79h0A6.4,6.4,0,0,1,199.88,64h0A6.41,6.41,0,0,1,194,70.78h-.45A6.36,6.36,0,0,1,187.16,64.85Zm25,5.86h0A6.33,6.33,0,0,1,206.19,64h0A6.3,6.3,0,0,1,212.94,58h0a6.32,6.32,0,0,1,5.93,6.75h0a6.34,6.34,0,0,1-6.35,5.93h-.41Z"/><path class="a" d="M190.74,391.68a8.23,8.23,0,0,1-7.64-8.75h0a8.2,8.2,0,0,1,8.75-7.69h0a8.29,8.29,0,0,1,7.68,8.75h0a8.25,8.25,0,0,1-8.23,7.69h-.56Zm17-7.69a8.22,8.22,0,0,1,7.65-8.78h0a8.25,8.25,0,0,1,8.79,7.65h0a8.26,8.26,0,0,1-7.65,8.79h0c-.21,0-.41,0-.59,0h0A8.22,8.22,0,0,1,207.7,384Zm-42.45,4.24h0a8.25,8.25,0,0,1-6.41-9.71h0a8.2,8.2,0,0,1,9.71-6.41h0a8.19,8.19,0,0,1,6.41,9.72h0a8.2,8.2,0,0,1-8,6.58h0A8.72,8.72,0,0,1,165.25,388.23Zm67-6.48a8.21,8.21,0,0,1,6.37-9.71h0a8.24,8.24,0,0,1,9.75,6.37h0a8.26,8.26,0,0,1-6.4,9.75h0a8.52,8.52,0,0,1-1.66.18h0A8.24,8.24,0,0,1,232.24,381.75Zm-91.81-.44a8.25,8.25,0,0,1-5-10.51h0a8.27,8.27,0,0,1,10.55-5h0a8.23,8.23,0,0,1,5,10.51h0a8.24,8.24,0,0,1-7.78,5.48h0A7.71,7.71,0,0,1,140.43,381.31Zm115.79-5.1a8.25,8.25,0,0,1,5-10.51h0a8.23,8.23,0,0,1,10.55,5h0a8.25,8.25,0,0,1-5,10.51h0a8.51,8.51,0,0,1-2.76.49h0A8.27,8.27,0,0,1,256.22,376.21Zm-139.43-5.14A8.22,8.22,0,0,1,113.28,360h0a8.22,8.22,0,0,1,11.09-3.52h0a8.22,8.22,0,0,1,3.52,11.1h0a8.22,8.22,0,0,1-7.31,4.44h0A8.35,8.35,0,0,1,116.79,371.07Zm162.45-3.65a8.23,8.23,0,0,1,3.52-11.1h0a8.22,8.22,0,0,1,11.1,3.48h0a8.24,8.24,0,0,1-3.52,11.13h0a8.18,8.18,0,0,1-3.79.9h0A8.23,8.23,0,0,1,279.24,367.42ZM94.81,357.7h0a8.22,8.22,0,0,1-2-11.47h0a8.22,8.22,0,0,1,11.47-2h0a8.23,8.23,0,0,1,2,11.47h0a8.29,8.29,0,0,1-6.75,3.52h0A8.32,8.32,0,0,1,94.81,357.7Zm206-2.14a8.2,8.2,0,0,1,2-11.47h0a8.2,8.2,0,0,1,11.47,2h0a8.25,8.25,0,0,1-2,11.47h0a8.4,8.4,0,0,1-4.76,1.52h0A8.16,8.16,0,0,1,300.85,355.56Zm-226-14.09a8.25,8.25,0,0,1-.41-11.65h0a8.26,8.26,0,0,1,11.64-.38h0a8.19,8.19,0,0,1,.42,11.62h0a8.15,8.15,0,0,1-6,2.62h0A8.22,8.22,0,0,1,74.82,341.47Zm245.81-.59a8.25,8.25,0,0,1,.38-11.64h0a8.25,8.25,0,0,1,11.64.38h0a8.22,8.22,0,0,1-.4,11.64h0a8.14,8.14,0,0,1-5.62,2.21h0A8.2,8.2,0,0,1,320.63,340.88ZM57.24,322.69h0a8.19,8.19,0,0,1,1.18-11.58h0A8.22,8.22,0,0,1,70,312.28h0a8.23,8.23,0,0,1-1.17,11.58h0a8.31,8.31,0,0,1-5.2,1.86h0A8.21,8.21,0,0,1,57.24,322.69Zm281,1A8.22,8.22,0,0,1,337,312.07h0a8.24,8.24,0,0,1,11.59-1.2h0a8.23,8.23,0,0,1,1.2,11.58h0a8.21,8.21,0,0,1-6.41,3h0A8.12,8.12,0,0,1,338.24,323.65ZM42.36,301.7a8.2,8.2,0,0,1,2.72-11.3h0a8.24,8.24,0,0,1,11.34,2.72h0a8.26,8.26,0,0,1-2.76,11.34h0a8.46,8.46,0,0,1-4.27,1.21h0A8.19,8.19,0,0,1,42.36,301.7Zm311,2.48a8.23,8.23,0,0,1-2.72-11.3h0a8.22,8.22,0,0,1,11.31-2.76h0a8.21,8.21,0,0,1,2.75,11.31h0a8.23,8.23,0,0,1-7,4h0A8.16,8.16,0,0,1,353.33,304.18ZM30.47,278.89a8.18,8.18,0,0,1,4.23-10.82h0a8.24,8.24,0,0,1,10.86,4.24h0a8.25,8.25,0,0,1-4.24,10.85h0a8.61,8.61,0,0,1-3.31.69h0A8.22,8.22,0,0,1,30.47,278.89Zm335.24,4A8.25,8.25,0,0,1,361.43,272h0a8.19,8.19,0,0,1,10.82-4.24h0a8.21,8.21,0,0,1,4.28,10.82h0a8.24,8.24,0,0,1-7.55,5h0A8.38,8.38,0,0,1,365.71,282.85ZM21.82,254.66A8.23,8.23,0,0,1,27.5,244.5h0a8.24,8.24,0,0,1,10.17,5.68h0A8.28,8.28,0,0,1,32,260.35h0a8,8,0,0,1-2.2.31h0A8.22,8.22,0,0,1,21.82,254.66ZM375,260a8.23,8.23,0,0,1-5.72-10.13h0a8.24,8.24,0,0,1,10.17-5.72h0a8.2,8.2,0,0,1,5.68,10.13h0a8.2,8.2,0,0,1-7.92,6h0A8,8,0,0,1,375,260ZM16.54,229.47a8.24,8.24,0,0,1,7-9.3h0a8.23,8.23,0,0,1,9.27,7h0a8.25,8.25,0,0,1-7,9.3h0a10.71,10.71,0,0,1-1.13.07h0A8.24,8.24,0,0,1,16.54,229.47Zm364.54,6.65a8.22,8.22,0,0,1-7-9.27h0a8.25,8.25,0,0,1,9.28-7h0a8.26,8.26,0,0,1,7.06,9.27h0a8.19,8.19,0,0,1-8.13,7.14h0A6.18,6.18,0,0,1,381.08,236.12ZM14.75,203.8h0A8.24,8.24,0,0,1,23,195.56h0a8.19,8.19,0,0,1,8.24,8.2h0A8.2,8.2,0,0,1,23,212h0A8.21,8.21,0,0,1,14.75,203.8Zm360.88-.38v-.24h0v-.41h0a8.22,8.22,0,0,1,8.2-8.28h0a8.24,8.24,0,0,1,8.27,8.21h0v.38h0v.34h0a8.23,8.23,0,0,1-8.23,8.24h0A8.24,8.24,0,0,1,375.63,203.42Zm-352.13-16a8.25,8.25,0,0,1-7.06-9.27h0a8.24,8.24,0,0,1,9.27-7.06h0a8.25,8.25,0,0,1,7.07,9.27h0a8.24,8.24,0,0,1-8.17,7.13h0A11,11,0,0,1,23.5,187.39Zm350.44-8.06a8.24,8.24,0,0,1,7-9.3h0a8.26,8.26,0,0,1,9.3,7h0v0h0a8.23,8.23,0,0,1-7,9.27h0a6.57,6.57,0,0,1-1.17.07h0A8.24,8.24,0,0,1,373.94,179.33ZM27.33,163a8.22,8.22,0,0,1-5.72-10.13h0a8.23,8.23,0,0,1,10.13-5.72h0a8.21,8.21,0,0,1,5.73,10.13h0a8.22,8.22,0,0,1-7.94,6h0A8.16,8.16,0,0,1,27.33,163Zm341.79-6.69a8.2,8.2,0,0,1,5.68-10.16h0A8.22,8.22,0,0,1,385,151.87h0A8.25,8.25,0,0,1,379.28,162h0a8.39,8.39,0,0,1-2.24.31h0A8.23,8.23,0,0,1,369.12,156.34ZM34.47,139.43a8.21,8.21,0,0,1-4.28-10.83h0A8.25,8.25,0,0,1,41,124.33h0a8.21,8.21,0,0,1,4.28,10.82h0a8.25,8.25,0,0,1-7.55,5h0A7.87,7.87,0,0,1,34.47,139.43Zm326.69-5.17a8.24,8.24,0,0,1,4.24-10.86h0a8.23,8.23,0,0,1,10.85,4.24h0A8.21,8.21,0,0,1,372,138.46h0a7.6,7.6,0,0,1-3.31.69h0A8.26,8.26,0,0,1,361.16,134.26ZM44.77,117.06A8.24,8.24,0,0,1,42,105.72h0A8.25,8.25,0,0,1,53.32,103h0a8.25,8.25,0,0,1,2.75,11.3h0a8.23,8.23,0,0,1-7,4h0A8.33,8.33,0,0,1,44.77,117.06Zm305.5-3.62a8.19,8.19,0,0,1,2.72-11.3h0a8.24,8.24,0,0,1,11.34,2.69h0a8.23,8.23,0,0,1-2.73,11.33h0a8.1,8.1,0,0,1-4.3,1.21h0A8.2,8.2,0,0,1,350.27,113.44ZM58,96.28a8.26,8.26,0,0,1-1.25-11.61h0a8.3,8.3,0,0,1,11.62-1.21h0A8.26,8.26,0,0,1,69.62,95h0a8.14,8.14,0,0,1-6.38,3.07h0A8.26,8.26,0,0,1,58,96.28Zm278.62-2a8.24,8.24,0,0,1,1.13-11.57h0a8.26,8.26,0,0,1,11.62,1.13h0a8.24,8.24,0,0,1-1.18,11.58h0a8,8,0,0,1-5.2,1.9h0A8.19,8.19,0,0,1,336.66,94.31ZM74,77.46a8.21,8.21,0,0,1,.38-11.61h0A8.25,8.25,0,0,1,86,66.19h0a8.26,8.26,0,0,1-.39,11.65h0A8.2,8.2,0,0,1,80,80.08h0A8.12,8.12,0,0,1,74,77.46Zm246.6-.27a8.21,8.21,0,0,1-.42-11.62h0a8.2,8.2,0,0,1,11.62-.44h0a8.27,8.27,0,0,1,.45,11.65h0a8.19,8.19,0,0,1-6,2.62h0A8.19,8.19,0,0,1,320.56,77.19ZM92.29,61a8.23,8.23,0,0,1,2-11.48h0a8.23,8.23,0,0,1,11.47,1.93h0a8.27,8.27,0,0,1-2,11.51l0,0A8.28,8.28,0,0,1,99,64.51h0A8.27,8.27,0,0,1,92.29,61Zm210,1.38h0a8.24,8.24,0,0,1-2-11.48h0a8.28,8.28,0,0,1,11.48-2h0a8.24,8.24,0,0,1,2,11.48h0A8.31,8.31,0,0,1,307,63.92h0A8.09,8.09,0,0,1,302.3,62.41ZM112.69,47.21a8.22,8.22,0,0,1,3.48-11.1h0a8.27,8.27,0,0,1,11.13,3.48h0a8.27,8.27,0,0,1-3.51,11.13h0a8.35,8.35,0,0,1-3.79.93h0A8.25,8.25,0,0,1,112.69,47.21Zm169.52,3h0a8.16,8.16,0,0,1-3.55-11.06h0a8.16,8.16,0,0,1,11.06-3.55h0a8.16,8.16,0,0,1,3.55,11.06h0A8.18,8.18,0,0,1,286,51.17h0A8.13,8.13,0,0,1,282.21,50.24ZM134.78,36.32a8.25,8.25,0,0,1,5-10.55h0a8.29,8.29,0,0,1,10.55,5h0a8.24,8.24,0,0,1-5,10.55h0a7.68,7.68,0,0,1-2.76.48h0A8.26,8.26,0,0,1,134.78,36.32Zm125.85,4.62a8.24,8.24,0,0,1-5.06-10.48h0a8.23,8.23,0,0,1,10.51-5h0a8.19,8.19,0,0,1,5,10.47h0a8.19,8.19,0,0,1-7.75,5.52h0A7.56,7.56,0,0,1,260.63,40.94ZM158.15,28.53a8.25,8.25,0,0,1,6.37-9.75h0a8.25,8.25,0,0,1,9.75,6.37h0a8.23,8.23,0,0,1-6.37,9.76h0a9.68,9.68,0,0,1-1.69.17h0A8.23,8.23,0,0,1,158.15,28.53ZM238,34.7A8.23,8.23,0,0,1,231.55,25h0a8.19,8.19,0,0,1,9.68-6.41h0a8.22,8.22,0,0,1,6.45,9.68h0a8.25,8.25,0,0,1-8.07,6.62h0A9.24,9.24,0,0,1,238,34.7ZM182.37,24A8.24,8.24,0,0,1,190,15.23h0a8.24,8.24,0,0,1,8.79,7.65h0a8.25,8.25,0,0,1-7.62,8.79h-.62A8.24,8.24,0,0,1,182.37,24Zm32.29,7.59h0A8.24,8.24,0,0,1,207,22.84h0a8.21,8.21,0,0,1,8.72-7.68h0a8.22,8.22,0,0,1,7.69,8.75h0a8.23,8.23,0,0,1-8.21,7.69h-.55Z"/></svg>